<svg width="395" height="40" viewBox="0 0 395 40" fill="none" xmlns="http://www.w3.org/2000/svg">
<path d="M40.0303 29.6699C40.0303 33.008 40.0842 36.3461 40.0842 39.6842C26.8394 39.6842 13.6485 39.6842 0.403817 39.6842C0.296136 39.4689 0.349977 39.2535 0.565338 39.1458C1.42678 38.7151 2.39591 38.8228 3.36504 38.8228C14.1331 38.8228 24.8473 38.8228 35.6154 38.8228C36.1538 38.8228 36.7461 38.8228 37.2845 38.8228C39.0074 38.7689 39.2227 38.6074 39.2227 36.8845C39.2766 35.2693 39.2227 33.6541 39.2227 32.0389C39.2227 31.339 39.1689 30.5852 39.4919 29.8853C39.6534 29.7776 39.815 29.6699 40.0303 29.6699Z" fill="#445D68"/>
<path d="M40.1379 0.0039124C40.1379 3.28817 40.0841 6.5186 40.0841 9.80286C39.8687 9.80286 39.6533 9.69518 39.5457 9.47981C38.9534 7.70308 39.2765 5.81867 39.2765 4.04194C39.2226 0.865358 39.2765 0.865357 36.046 0.865357C25.1703 0.865357 14.2945 0.865357 3.41877 0.865357C2.50349 0.865357 1.53436 0.973039 0.619072 0.542316C0.403711 0.434635 0.34987 0.219274 0.457551 0.0039124C13.6484 0.0039124 26.8932 0.0039124 40.1379 0.0039124Z" fill="#FB4740"/>
<path d="M0.0809378 29.7238C0.0809378 23.0476 0.0809378 16.3714 0.0809378 9.69523C0.296299 9.69523 0.511661 9.74907 0.619341 9.96444C1.21159 11.5796 0.888543 13.2487 0.942383 14.9177C0.996224 16.533 0.996224 18.1482 0.942383 19.7095C0.996224 22.3477 0.942383 25.0397 0.942383 27.6779C0.942383 28.2702 0.942384 28.9162 0.619341 29.4546C0.511661 29.67 0.35014 29.7238 0.0809378 29.7238Z" fill="#D9F4F2"/>
<path d="M0.0807607 29.7237C0.134601 29.6699 0.242282 29.6699 0.296122 29.6699C0.403803 29.7237 0.457643 29.7776 0.565324 29.8853C1.10373 33.0619 1.26525 36.2384 0.457643 39.3612C0.457643 39.4689 0.403803 39.5765 0.403803 39.7381C-0.242282 39.7919 0.0807607 39.3073 0.0807607 39.092C0.0807607 35.9154 0.0807607 32.8465 0.0807607 29.7237Z" fill="#C1C8CB"/>
<path d="M0.403803 9.96462C0.296122 9.85694 0.188441 9.8031 0.0807607 9.69541C0.0807607 6.68035 0.0807607 3.66529 0.0807607 0.650232C0.0807607 0.43487 -0.242282 -0.0496953 0.403803 0.0041451C0.403803 0.111826 0.457643 0.219509 0.457643 0.38103C0.834526 0.757913 0.888366 1.24248 0.888366 1.78088C0.834526 4.36522 1.10373 6.89571 0.726845 9.48005C0.726845 9.64157 0.565324 9.85694 0.403803 9.96462Z" fill="#FDC2BF"/>
<path d="M0.457551 19.7637C0.457551 16.4794 0.403711 13.249 0.403711 9.96473C0.457551 9.91089 0.457551 9.80321 0.403711 9.74937C1.0498 9.15712 1.80356 9.15713 2.61117 9.15713C14.2945 9.15713 25.924 9.15713 37.6074 9.15713C38.3612 9.15713 39.1688 9.15712 39.8149 9.74937C39.9225 9.80321 39.9764 9.85705 40.0841 9.80321C40.0841 16.3179 40.0841 22.8326 40.0841 29.3473C39.1149 29.0781 39.3303 28.2166 39.2765 27.5705C39.2226 25.7938 39.2765 24.0171 39.2226 22.2403C39.1688 20.4098 39.0611 20.2482 37.2305 20.2482C31.0389 20.1944 24.9011 20.2482 18.7094 20.2482C13.4331 20.2482 8.15672 20.2482 2.88037 20.2482C2.07276 20.2482 1.21132 20.3559 0.457551 19.7637Z" fill="#97EFDE"/>
<path d="M0.457519 19.7634C13.11 19.7634 25.7625 19.7634 38.3611 19.7095C39.4379 19.7095 39.8148 20.0326 39.8148 21.1094C39.761 23.3169 39.761 25.5243 39.8148 27.7856C39.8148 28.324 39.6533 28.9162 40.084 29.4008C40.084 29.5085 40.084 29.6162 40.0302 29.7239C39.9225 29.7239 39.8148 29.7238 39.761 29.7777C39.1149 30.3699 38.3073 30.3161 37.5535 30.3161C25.924 30.3161 14.2945 30.3161 2.66497 30.3161C1.91121 30.3161 1.1036 30.3699 0.457519 29.7777L0.295998 29.7239C0.403678 26.3858 0.403678 23.0476 0.457519 19.7634Z" fill="#3CC0C1"/>
<path d="M164.671 25.4708C165.209 24.7708 164.994 24.2325 164.994 23.694C164.994 19.1715 165.048 14.7027 164.994 10.1801C164.94 8.78026 165.532 8.5649 166.663 8.72642C167.578 8.8341 168.763 8.18802 168.763 10.0724C168.655 16.5871 168.709 23.048 168.763 29.5626C168.763 30.5856 168.493 30.8548 167.417 31.0163C164.725 31.3394 163.217 30.4241 162.033 27.8936C159.987 23.5325 157.51 19.3868 155.195 15.1873C154.926 14.6489 154.603 14.1643 154.28 13.6259C153.741 14.0028 153.957 14.4873 153.957 14.9181C153.957 19.8175 153.849 24.717 154.01 29.5626C154.064 31.0702 153.31 31.0702 152.287 30.9087C151.426 30.801 150.134 31.5547 150.188 29.6165C150.295 23.048 150.242 16.5333 150.188 9.96475C150.188 8.88795 150.565 8.78026 151.534 8.67258C154.549 8.24186 156.218 9.37251 157.564 12.1722C159.556 16.6948 162.194 20.9482 164.671 25.4708Z" fill="#121212"/>
<path d="M363.126 25.2552C363.126 20.3019 363.234 15.4024 363.073 10.4491C363.019 8.78005 363.772 8.78006 365.011 8.72621C366.303 8.67237 366.841 8.88773 366.841 10.3953C366.734 16.8023 366.788 23.1554 366.841 29.5624C366.841 30.7469 366.464 30.9084 365.334 31.07C362.749 31.393 361.242 30.4239 360.057 28.0011C357.688 23.1554 354.943 18.4713 352.358 13.6795C351.658 14.0026 351.981 14.4871 351.981 14.864C351.981 19.7635 351.874 24.663 352.035 29.5086C352.089 31.1238 351.281 31.0161 350.205 30.9623C349.236 30.9084 348.159 31.393 348.213 29.5086C348.32 22.9939 348.266 16.5331 348.213 10.0184C348.213 9.04925 348.428 8.78005 349.451 8.67237C352.412 8.24165 354.189 9.26462 355.481 12.1182C357.635 16.6407 360.273 20.948 362.696 25.309C362.857 25.309 362.965 25.2552 363.126 25.2552Z" fill="#121212"/>
<path d="M265.945 30.9625C264.437 30.9625 262.93 31.0164 261.422 30.9625C258.892 30.9087 257.815 29.8857 257.492 27.4091C257.438 27.1937 257.438 26.9784 257.384 26.763C257.061 23.8556 257.115 23.8556 260.022 23.9633C260.83 24.0171 260.991 24.2863 261.099 25.0401C261.422 27.8936 261.476 27.8936 264.383 27.8936C266.106 27.8936 267.829 27.8936 269.552 27.8936C270.736 27.8936 271.221 27.4091 271.275 26.2246C271.544 22.025 271.598 22.025 267.506 21.5943C265.568 21.379 263.63 21.2713 261.691 21.0559C258.838 20.7867 257.761 19.6561 257.599 16.8564C257.546 15.295 257.438 13.7336 257.761 12.2261C258.192 10.0186 259.268 8.94183 261.422 8.83415C264.599 8.72646 267.775 8.72646 270.898 8.83415C272.998 8.88799 274.021 9.9648 274.398 12.1184C274.451 12.4415 274.451 12.7645 274.505 13.0875C274.667 15.618 273.913 16.2103 271.436 15.6719C270.629 15.5103 270.898 14.972 270.844 14.5412C270.683 11.903 270.683 11.903 267.991 11.903C266.322 11.903 264.652 11.903 262.983 11.903C261.907 11.903 261.422 12.3876 261.314 13.4644C260.937 17.3409 261.207 17.664 265.029 17.987C267.291 18.2024 269.552 18.3101 271.813 18.6869C273.805 19.01 274.613 19.9253 274.828 21.8635C275.044 23.6402 275.044 25.417 274.828 27.1937C274.559 29.7242 273.267 30.9087 270.683 31.0164C269.175 31.0164 267.56 30.9625 265.945 30.9625Z" fill="#121212"/>
<path d="M206.02 19.8713C206.02 16.6409 206.02 13.4105 206.02 10.18C206.02 9.21091 206.128 8.67251 207.366 8.72635C211.889 8.78019 216.358 8.83403 220.88 8.72635C222.28 8.67251 222.119 9.48011 222.065 10.2877C222.065 11.0953 222.334 11.9568 220.88 11.9029C217.596 11.7953 214.312 11.9029 211.027 11.8491C210.058 11.8491 209.789 12.1183 209.843 13.0336C209.951 14.595 209.358 16.587 210.112 17.5562C210.92 18.5253 213.019 17.7715 214.581 17.8254C216.035 17.8792 217.488 17.8792 218.942 17.8254C220.611 17.7715 219.803 19.0099 219.911 19.7098C220.073 20.4635 220.019 21.0558 218.888 21.002C216.304 20.8943 213.666 21.002 211.027 20.9481C210.058 20.9481 209.789 21.2173 209.843 22.1326C209.897 23.6401 209.951 25.1477 209.843 26.6552C209.789 27.6243 210.166 27.8397 211.081 27.8397C214.312 27.7858 217.542 27.8935 220.773 27.7858C222.172 27.732 222.119 28.4858 222.065 29.4549C222.065 30.3163 222.172 31.0163 220.826 31.0163C216.304 30.9086 211.835 30.9624 207.312 31.0163C206.236 31.0163 206.02 30.6932 206.02 29.6703C206.074 26.386 206.02 23.1556 206.02 19.8713Z" fill="#131313"/>
<path d="M334.322 17.6101C334.322 15.1334 334.376 12.6029 334.322 10.1262C334.268 8.99559 334.645 8.61871 335.722 8.78023C336.26 8.83407 336.852 8.83407 337.391 8.78023C338.037 8.72639 338.252 9.04944 338.252 9.69552C338.144 15.0796 338.521 20.4636 338.037 25.8476C337.714 29.3473 336.529 30.6394 333.083 30.9625C330.176 31.2317 327.215 31.2855 324.307 30.8548C321.831 30.4779 320.539 29.1857 320.269 26.7091C319.677 21.0558 320.162 15.4026 320 9.74936C320 8.99559 320.377 8.78023 321.023 8.83407C321.508 8.88791 322.046 8.88791 322.531 8.83407C323.554 8.67255 323.823 9.15711 323.823 10.1262C323.823 14.9719 323.877 19.7637 323.931 24.6093C323.984 27.3552 324.415 27.7859 327.161 27.8397C328.669 27.8936 330.176 27.8936 331.684 27.8397C333.891 27.7859 334.376 27.3013 334.429 25.04C334.376 22.5095 334.322 20.0329 334.322 17.6101Z" fill="#131313"/>
<path d="M136.243 17.6637C136.243 15.2947 136.351 12.8719 136.189 10.5029C136.081 8.94154 136.674 8.45697 138.074 8.78002C138.773 8.94154 140.119 8.08009 140.119 9.58762C140.066 15.2947 140.496 21.0018 139.85 26.7089C139.581 29.0778 138.235 30.4238 135.866 30.7469C132.69 31.1776 129.459 31.1776 126.229 30.7469C123.644 30.4238 122.406 29.0778 122.137 26.4935C121.545 20.8941 122.029 15.2947 121.868 9.69531C121.868 8.99538 122.083 8.67234 122.837 8.72618C123.375 8.78002 123.967 8.78002 124.506 8.72618C125.529 8.6185 125.69 9.10306 125.69 9.96451C125.636 13.7333 125.636 17.5022 125.69 21.271C125.69 22.7247 125.798 24.1245 125.852 25.5782C125.906 26.9781 126.659 27.678 128.113 27.678C130.051 27.678 131.99 27.678 133.928 27.678C135.435 27.678 136.189 26.9242 136.189 25.4705C136.189 22.8862 136.189 20.248 136.243 17.6637C136.189 17.6637 136.189 17.6637 136.243 17.6637Z" fill="#131313"/>
<path d="M71.2039 19.8713C71.2039 16.5871 71.2578 13.3028 71.2039 10.0185C71.2039 8.99556 71.4731 8.67253 72.4961 8.72637C76.6956 8.78021 80.949 8.78021 85.1486 8.72637C86.5484 8.67253 86.3331 9.53397 86.3331 10.3416C86.3331 11.1492 86.5484 11.9568 85.1486 11.9029C82.1874 11.7953 79.28 11.9029 76.3188 11.8491C75.3496 11.8491 74.9189 12.0645 74.9727 13.1413C75.0804 14.5411 75.0266 15.941 74.9727 17.287C74.9189 18.1484 75.1881 18.4176 76.1034 18.4176C78.3109 18.3638 80.5721 18.4715 82.7796 18.3638C84.2871 18.2561 83.9641 19.2252 84.0179 20.0867C84.0718 21.0558 83.9641 21.6481 82.7258 21.5942C80.5721 21.4865 78.4185 21.5942 76.2111 21.5404C75.2958 21.5404 74.9727 21.8096 74.9727 22.7787C75.0266 25.04 74.9727 27.3551 75.0266 29.6164C75.0266 30.6394 74.8651 31.0701 73.6806 31.0701C71.2039 31.0163 71.2039 31.0701 71.2039 28.5935C71.2039 25.6322 71.2039 22.7787 71.2039 19.8713Z" fill="#141414"/>
<path d="M296.526 19.7634C296.526 16.533 296.58 13.3026 296.526 10.126C296.526 9.21072 296.633 8.72615 297.764 8.77999C301.964 8.83383 306.217 8.88767 310.417 8.77999C311.978 8.72615 311.547 9.69529 311.601 10.5029C311.709 11.472 311.601 12.0104 310.309 11.9566C307.402 11.8489 304.548 11.9566 301.641 11.9027C300.51 11.8489 300.187 12.2796 300.241 13.3026C300.348 14.5948 300.348 15.8869 300.241 17.1253C300.133 18.3097 300.618 18.5251 301.641 18.4713C303.794 18.4174 305.948 18.5251 308.155 18.4174C309.663 18.3636 309.178 19.3865 309.178 20.0865C309.232 20.8402 309.447 21.6478 308.101 21.594C305.948 21.4863 303.794 21.6478 301.587 21.5402C300.51 21.4863 300.133 21.8094 300.187 22.94C300.295 25.2013 300.133 27.5164 300.241 29.7777C300.295 30.8545 299.918 31.1776 298.895 31.0161C298.518 30.9622 298.087 30.9622 297.71 31.0161C296.526 31.2314 296.364 30.6392 296.364 29.6162C296.58 26.332 296.526 23.0477 296.526 19.7634Z" fill="#131313"/>
<path d="M394.623 14.4875C394.031 10.8264 392.362 9.04963 388.755 8.83427C385.093 8.61891 381.432 8.78043 377.771 8.72659C376.963 8.72659 376.91 9.15731 376.91 9.74955C376.91 16.4796 376.91 23.2096 376.91 29.9397C376.91 30.7473 377.125 31.0165 377.933 30.9627C381.432 30.9088 384.932 31.0165 388.431 30.9088C391.985 30.8011 393.6 29.2936 394.515 25.8478C394.677 25.2556 394.408 24.5018 395 24.0173C395 21.3252 395 18.6871 395 15.995C394.462 15.6182 394.731 15.0259 394.623 14.4875ZM390.693 25.2556C390.424 27.0323 389.347 27.8399 387.624 27.8938C385.632 27.8938 383.64 27.8399 381.648 27.8938C380.84 27.8938 380.625 27.6784 380.625 26.8708C380.678 24.5557 380.625 22.1867 380.625 19.8715C380.625 17.5564 380.678 15.1874 380.625 12.8723C380.625 12.0647 380.84 11.8493 381.648 11.8493C383.64 11.9032 385.632 11.7955 387.624 11.9032C389.562 11.957 390.37 12.6031 390.693 14.4875C391.285 18.0948 391.231 21.6483 390.693 25.2556Z" fill="#121212"/>
<path d="M0.45769 29.7242C13.5409 29.7242 26.6241 29.7242 39.7612 29.7242C39.7612 32.47 39.7073 35.162 39.815 37.9079C39.8688 39.0924 39.492 39.4154 38.3075 39.4154C25.7088 39.3616 13.1102 39.3616 0.45769 39.3616C0.45769 36.1312 0.45769 32.9007 0.45769 29.7242Z" fill="#052736"/>
<path d="M39.8149 9.7493C39.2226 9.80314 38.6304 9.85698 37.9843 9.85698C26.0856 9.85698 14.1868 9.85698 2.23428 9.85698C1.64204 9.85698 1.0498 9.80314 0.403711 9.7493C0.403711 6.62656 0.457551 3.50382 0.457551 0.381079C13.11 0.381079 25.7087 0.381076 38.3612 0.327236C39.438 0.327236 39.8149 0.650281 39.761 1.72709C39.761 4.41911 39.8149 7.05728 39.8149 9.7493Z" fill="#FA0900"/>
<path d="M248.5 30.0473C248.339 28.0552 248.285 26.0631 248.123 24.071C248.016 22.3481 247.369 20.9483 245.324 20.5175C247.692 19.8715 248.285 18.0947 248.339 15.995C248.392 14.7566 248.339 13.5721 248.177 12.3338C247.854 9.96483 246.508 8.78035 244.139 8.7265C240.101 8.67266 236.009 8.7265 231.971 8.67266C231.056 8.67266 230.894 9.04954 230.894 9.85715C230.894 16.4795 230.948 23.1019 230.894 29.6704C230.894 30.7472 231.271 31.0164 232.24 30.9087C232.563 30.8549 232.886 30.8549 233.263 30.9087C234.448 31.0703 234.932 30.6934 234.878 29.4012C234.771 27.2476 234.878 25.094 234.825 22.8865C234.825 22.1866 234.878 21.7559 235.74 21.7559C237.84 21.8097 239.939 21.7559 242.093 21.8097C243.493 21.8097 244.193 22.5096 244.247 23.9633C244.301 25.417 244.408 26.8169 244.516 28.2706C244.731 31.0703 244.731 31.0703 247.639 30.9087C248.339 30.9626 248.554 30.7472 248.5 30.0473ZM239.186 18.7947C237.786 18.7947 235.955 19.3331 235.148 18.6331C234.179 17.8255 234.878 15.9411 234.825 14.4874C234.771 11.8492 234.825 11.8492 237.517 11.8492C239.24 11.8492 240.962 11.8492 242.685 11.8492C243.654 11.8492 244.247 12.28 244.408 13.2491C244.462 13.4645 244.516 13.6798 244.516 13.8952C245.054 18.3639 244.462 18.8485 239.186 18.7947Z" fill="#131313"/>
<path d="M111.853 12.6029C111.207 9.91093 109.969 8.83412 107.223 8.78028C104.423 8.78028 101.677 8.72644 98.8778 8.78028C96.2934 8.78028 94.9474 9.85709 94.4629 12.3876C93.5476 17.3947 93.5476 22.4557 94.4629 27.409C94.9474 29.9395 96.3473 30.9625 98.9316 30.9625C101.731 30.9625 104.477 30.9625 107.277 30.9625C109.915 30.9625 111.261 29.8319 111.853 27.3014C112.446 24.8247 112.23 22.3481 112.446 19.8714C112.23 17.4486 112.392 14.9719 111.853 12.6029ZM108.192 26.1707C108.084 27.409 107.438 27.8936 106.2 27.8936C104.154 27.8398 102.108 27.8936 100.062 27.8936C98.8778 27.8936 98.2855 27.4629 98.0702 26.1707C97.7471 24.0709 97.8548 21.9712 97.7471 19.9252C97.8548 17.7178 97.6933 15.5103 98.0702 13.4106C98.2855 12.3337 98.8239 11.8492 99.8469 11.8492C102.001 11.8492 104.154 11.8492 106.308 11.8492C107.438 11.8492 108.031 12.3876 108.138 13.5182C108.623 17.7716 108.623 21.9712 108.192 26.1707Z" fill="#121212"/>
<path d="M196.329 13.7334C195.79 10.7722 193.96 9.04932 190.999 8.8878C187.176 8.72627 183.353 8.78011 179.531 8.72627C178.615 8.72627 178.831 9.37236 178.831 9.91076C178.831 13.195 178.831 16.4793 178.831 19.7635C178.831 23.1017 178.831 26.4397 178.831 29.7779C178.831 30.6393 178.938 31.07 179.961 31.07C183.353 31.0162 186.745 31.1239 190.137 31.0162C193.798 30.9085 195.737 29.401 196.383 25.8475C197.136 21.7556 197.083 17.7176 196.329 13.7334ZM192.56 25.3629C192.291 26.9782 191.322 27.7858 189.707 27.8396C187.607 27.8934 185.507 27.8396 183.407 27.8934C182.438 27.9473 182.546 27.355 182.546 26.709C182.546 24.3938 182.546 22.0248 182.546 19.7097C182.546 17.5023 182.6 15.2948 182.546 13.0335C182.546 12.1721 182.707 11.7413 183.676 11.7952C185.561 11.9029 187.445 11.7952 189.33 11.849C191.483 11.9029 192.291 12.4951 192.614 14.5949C193.152 18.2022 193.098 21.8095 192.56 25.3629Z" fill="#121212"/>
</svg>
