<svg width="402" height="52" viewBox="0 0 402 52" fill="none" xmlns="http://www.w3.org/2000/svg">
<path d="M388.444 19.6905H388.38C387.101 19.8184 385.95 19.8184 385.567 18.1559C385.311 17.1968 384.416 16.5573 383.457 16.1737C380.899 15.0227 378.341 15.0866 375.783 16.3016C375.144 16.6213 374.632 17.0689 374.249 17.6444C373.418 18.8593 373.801 20.266 375.08 20.9055C376.423 21.6088 377.894 21.8007 379.364 22.0564C381.73 22.504 384.16 22.7598 386.462 23.5911C389.02 24.5502 390.874 26.0848 391.322 28.8983C391.833 32.0315 391.002 34.7811 388.508 36.8273C385.631 39.1292 382.242 39.6408 378.725 39.3211C375.975 39.0653 373.481 38.234 371.435 36.3797C369.645 34.7811 368.686 32.7989 368.238 30.4969C368.174 30.1133 368.238 29.9214 368.686 29.9214C369.965 29.9214 371.243 29.9214 372.522 29.9214C372.778 29.9214 372.97 29.9854 373.098 30.3051C374.121 33.758 376.87 34.7811 380.068 34.9729C381.602 35.1008 383.073 34.7811 384.416 34.1417C385.311 33.6941 386.078 33.1186 386.59 32.2234C387.421 30.6248 386.909 28.9623 385.375 28.131C383.584 27.2358 381.666 26.98 379.748 26.7243C377.766 26.4046 375.783 26.0209 373.865 25.3815C367.727 23.2074 368.366 16.3655 371.947 13.4241C374.568 11.314 377.574 10.8025 380.771 10.9303C382.817 10.9943 384.863 11.4419 386.654 12.5289C389.084 13.9357 390.49 16.1097 391.002 18.8593C391.066 19.4348 391.002 19.6905 390.362 19.6266C389.659 19.6266 389.084 19.6905 388.444 19.6905Z" fill="#0077C4"/>
<path d="M299.243 14.319C301.418 12.0809 303.911 10.9939 306.789 10.9939C312.863 10.9939 317.084 14.9584 317.275 21.0969C317.467 26.7878 317.339 32.5427 317.339 38.2337C317.339 38.7452 317.148 38.7452 316.764 38.7452C315.677 38.7452 314.59 38.6813 313.567 38.7452C312.735 38.8091 312.671 38.4894 312.671 37.7861C312.671 32.6067 312.671 27.4273 312.671 22.2479C312.671 21.033 312.48 19.882 312.032 18.795C310.753 15.9815 308.451 15.2142 306.085 15.2781C302.952 15.406 300.65 17.1324 299.755 19.882C299.499 20.5854 299.371 21.3527 299.435 22.12C299.435 27.3633 299.435 32.6706 299.435 37.9139C299.435 38.6173 299.243 38.7452 298.604 38.7452C297.581 38.6813 296.494 38.6813 295.471 38.7452C294.831 38.7452 294.64 38.6173 294.703 37.9779C294.767 35.6759 294.703 33.4379 294.703 31.136C294.703 24.9335 294.703 18.6671 294.703 12.4646C294.703 11.7612 294.895 11.5694 295.599 11.5694C296.622 11.6333 297.709 11.6333 298.732 11.5694C299.18 11.5694 299.307 11.6973 299.307 12.1449C299.18 12.8483 299.243 13.4877 299.243 14.319Z" fill="#0077C4"/>
<path d="M175.386 25.7652C177.304 23.9109 179.095 22.1844 180.821 20.5219C183.698 17.7084 186.64 14.8949 189.517 12.1453C189.709 11.9535 189.837 11.7617 190.157 11.7617C191.499 11.7617 192.906 11.7617 193.993 11.7617C192.778 13.1045 191.499 14.5752 190.157 15.918C188.238 17.9002 186.192 19.7546 184.21 21.6728C183.762 22.0565 183.954 22.3123 184.21 22.6959C187.727 27.9393 191.308 33.1826 194.824 38.4899C194.952 38.7456 195.144 38.9375 195.336 39.3211C194.057 39.3211 192.842 39.3211 191.627 39.3211C191.308 39.3211 191.18 38.9375 191.052 38.6817C187.983 34.1417 184.913 29.6018 181.908 25.0618C181.588 24.5503 181.396 24.4224 180.885 24.9339C179.222 26.5965 177.56 28.1311 175.897 29.7297C175.514 30.0494 175.386 30.433 175.386 30.9446C175.386 33.5023 175.386 36.06 175.386 38.6178C175.386 39.2572 175.194 39.449 174.555 39.3851C173.787 39.3211 172.764 39.7048 172.317 39.1932C171.933 38.7456 172.189 37.7226 172.189 37.0192C172.189 25.0618 172.189 13.0405 172.189 1.08318C172.189 0.315862 172.38 0.0600902 173.148 0.124033C173.851 0.187976 174.81 -0.195685 175.258 0.31586C175.706 0.763461 175.386 1.65867 175.386 2.36204C175.386 9.77944 175.386 17.2608 175.386 24.6782C175.386 24.9339 175.386 25.1897 175.386 25.7652Z" fill="#717171"/>
<path d="M75.6347 11.7613C76.6578 11.7613 77.617 11.7613 78.5761 11.7613C79.0877 11.7613 79.1516 12.145 79.2795 12.4647C80.942 16.8768 82.6045 21.2889 84.2031 25.637C85.2262 28.4505 86.3132 31.2 87.4003 34.2054C87.8479 33.0544 88.2315 32.0313 88.6152 31.0082C90.9171 24.8697 93.283 18.7311 95.585 12.5287C95.7768 11.9532 96.0326 11.7613 96.672 11.7613C97.5033 11.8253 98.2706 11.7613 99.2297 11.7613C98.7182 13.1041 98.2706 14.3191 97.823 15.5979C94.498 24.486 91.1729 33.438 87.8479 42.3261C86.8887 44.8838 85.482 47.0579 82.9243 48.2728C81.2617 49.0401 79.5353 49.2959 77.7449 48.9762C77.4251 48.9123 77.2333 48.8483 77.2333 48.4647C77.2333 48.4007 77.2333 48.3368 77.2333 48.2728C77.2333 47.5055 76.9776 46.5464 77.3612 46.0348C77.7449 45.5233 78.704 45.9069 79.4074 45.9069C81.4536 45.779 82.9243 44.756 84.0113 43.0295C84.7786 41.7506 85.1623 40.2799 85.6099 38.8732C85.7377 38.4895 85.5459 38.2338 85.418 37.9141C82.2209 29.4096 79.0237 20.9691 75.8266 12.4647C75.7626 12.2729 75.6987 12.0811 75.6347 11.7613Z" fill="#717171"/>
<path d="M165.73 21.0972C164.835 21.353 164.26 20.9054 163.748 19.8183C160.231 12.7846 150.576 12.401 146.1 19.051C142.199 24.9338 144.246 32.8627 150.512 35.8041C155.691 38.2979 161.894 35.932 164.132 30.6247C164.388 29.9853 164.643 29.7295 165.347 29.7935C165.922 29.8574 166.562 29.8574 167.137 29.7935C167.649 29.7935 167.713 29.9214 167.585 30.4329C166.178 35.3565 161.638 39.1292 156.65 39.7686C147.379 40.9835 140.025 32.9267 141.048 23.9746C141.752 17.4525 146.1 12.5288 152.174 11.25C158.825 9.84324 165.602 13.9356 167.521 20.3938C167.649 20.9054 167.585 21.0333 167.073 21.0333C166.69 21.0972 166.306 21.0972 165.73 21.0972Z" fill="#717171"/>
<path d="M278.782 18.4757C278.782 13.7439 278.782 9.77947 278.782 5.87894C278.782 5.30345 278.91 5.11162 279.549 5.11162C280.636 5.17556 281.723 5.17556 282.874 5.11162C283.386 5.11162 283.577 5.23951 283.514 5.75105C283.45 7.1578 283.514 8.62849 283.514 10.0352C283.514 10.6107 283.641 10.8665 284.281 10.8665C285.816 10.8026 287.35 10.8665 288.949 10.8665C289.46 10.8665 289.716 10.9304 289.652 11.5699C289.588 12.593 289.588 13.68 289.652 14.7031C289.652 15.2786 289.524 15.4704 288.885 15.4704C287.286 15.4065 285.752 15.4704 284.153 15.4704C283.514 15.4704 283.514 15.7262 283.514 16.2377C283.514 20.5858 283.514 24.9979 283.577 29.346C283.577 32.6711 285.432 34.5254 288.821 34.4615C289.588 34.4615 289.844 34.6533 289.78 35.4206C289.716 36.3798 289.716 37.3389 289.78 38.2981C289.78 38.6817 289.716 38.8096 289.268 38.8736C283.961 39.3851 279.613 36.5077 279.038 30.6888C278.526 26.3407 278.91 21.9926 278.782 18.4757Z" fill="#0077C4"/>
<path d="M357.751 14.3194C359.989 11.8895 362.547 10.9304 365.616 10.9304C366.256 10.9304 366.64 11.0583 366.576 11.8895C366.512 12.9766 366.512 13.9996 366.576 15.0867C366.576 15.5343 366.512 15.6622 366 15.6622C363.442 15.6622 361.14 16.3016 359.478 18.4117C358.391 19.8185 358.007 21.481 358.007 23.2714C358.007 28.195 358.007 33.0547 358.007 37.9783C358.007 38.6817 357.815 38.8735 357.112 38.8735C356.089 38.8095 355.066 38.8095 354.043 38.8735C353.403 38.9374 353.211 38.7456 353.211 38.0422C353.211 32.9907 353.211 27.8753 353.211 22.8238C353.211 19.4348 353.211 15.9819 353.211 12.5929C353.211 11.8895 353.339 11.6338 354.107 11.6977C355.13 11.7616 356.153 11.7616 357.176 11.6977C357.751 11.6977 357.879 11.8895 357.879 12.4011C357.751 12.9766 357.751 13.552 357.751 14.3194Z" fill="#0077C4"/>
<path d="M265.546 14.3194C267.784 11.9535 270.341 10.9304 273.411 10.9943C274.05 10.9943 274.37 11.1222 274.306 11.8895C274.242 12.9766 274.306 14.0636 274.306 15.2146C274.306 15.6622 274.178 15.7901 273.73 15.7901C272.579 15.7901 271.428 15.918 270.341 16.3016C267.464 17.3247 265.737 19.7545 265.737 23.0156C265.737 27.7474 265.737 32.5432 265.737 37.2749C265.737 38.8735 265.737 38.8735 264.139 38.8735C263.435 38.8735 262.668 38.8096 261.965 38.8735C261.261 38.9375 261.006 38.7456 261.006 37.9783C261.069 32.4153 261.006 26.8522 261.006 21.3531C261.006 18.4117 261.006 15.4064 261.006 12.465C261.006 11.8895 261.133 11.6977 261.773 11.6977C262.796 11.7617 263.883 11.6977 264.906 11.6977C265.418 11.6977 265.673 11.8256 265.609 12.4011C265.482 12.9126 265.546 13.5521 265.546 14.3194Z" fill="#0077C4"/>
<path d="M36.7572 14.6395C39.251 12.1457 42.1285 11.1226 45.4535 11.0586C46.0929 11.0586 46.4766 11.1865 46.3487 11.9538C46.2848 12.5933 46.5405 13.4245 46.2208 13.9361C45.9011 14.4476 45.0059 14.1279 44.4304 14.1918C40.0823 14.5755 36.6933 17.7727 36.7572 23.3357C36.7572 28.3233 36.7572 33.3748 36.7572 38.3623C36.7572 39.0657 36.6294 39.4493 35.7981 39.3215C35.0947 39.1936 34.1356 39.6412 33.688 39.1296C33.2404 38.682 33.5601 37.7868 33.5601 37.0835C33.5601 28.8987 33.5601 20.714 33.5601 12.5933C33.5601 11.8899 33.688 11.6341 34.4553 11.6981C35.2226 11.826 36.1818 11.3784 36.6294 11.8899C37.013 12.3375 36.7572 13.2966 36.7572 14C36.7572 14.1918 36.7572 14.3197 36.7572 14.6395Z" fill="#717171"/>
<path d="M106.199 19.6906C106.199 25.957 106.199 32.2234 106.199 38.4898C106.199 39.1932 106.072 39.449 105.304 39.3851C104.601 39.3211 103.642 39.7048 103.194 39.1932C102.747 38.7456 103.066 37.8504 103.066 37.147C103.066 25.1258 103.066 13.1045 103.066 1.01922C103.066 0.251904 103.258 -0.0678108 104.025 0.0600752C104.729 0.187961 105.624 -0.259643 106.072 0.251901C106.455 0.699503 106.199 1.53076 106.199 2.23413C106.263 8.05295 106.199 13.8718 106.199 19.6906Z" fill="#717171"/>
<path d="M398.483 38.4902C396.437 38.4902 394.966 37.0195 394.966 35.0372C394.966 33.055 396.501 31.5204 398.483 31.5204C400.401 31.5204 401.936 33.055 402 34.9733C402 36.9555 400.465 38.4902 398.483 38.4902Z" fill="#0077C2"/>
<path d="M225.006 15.9176C221.169 11.3137 214.967 9.71511 209.851 12.081C208.189 12.8483 206.846 13.9993 205.503 15.5339C205.503 14.2551 205.503 13.232 205.503 12.2728C205.503 11.8252 205.375 11.6334 204.864 11.6334C203.84 11.6973 202.753 11.6973 201.73 11.6334C201.027 11.5695 200.835 11.8252 200.835 12.5286C200.835 18.5392 200.835 24.5499 200.835 30.5605C200.835 37.2746 200.835 43.9886 200.835 50.7026C200.835 51.406 201.027 51.5978 201.73 51.5339C202.753 51.4699 203.777 51.4699 204.8 51.5339C205.439 51.5978 205.631 51.406 205.631 50.7026C205.567 45.8429 205.631 40.9193 205.631 36.0596C205.631 35.8039 205.567 35.4842 205.759 35.1644C210.618 40.7914 217.972 40.3438 222.768 36.6991C229.034 31.9033 230.057 22.0561 225.006 15.9176ZM220.466 32.5428C217.141 35.8678 212.089 35.8678 208.764 32.5428C205.119 28.898 204.672 23.2071 207.677 19.1147C211.769 13.4877 219.698 14.383 222.576 20.7133C223.215 22.1201 223.535 23.5907 223.535 25.1254C223.407 28.0028 222.512 30.4966 220.466 32.5428Z" fill="#0077C4"/>
<path d="M326.739 26.5322C330.256 26.5322 333.773 26.5322 337.29 26.5322C340.806 26.5322 344.323 26.5322 347.84 26.5322C348.416 26.5322 348.608 26.3404 348.608 25.7649C348.544 23.5269 348.096 21.3528 347.265 19.3066C344.643 13.1681 338.057 9.71516 331.918 11.3137C326.675 12.6565 323.286 16.1095 321.879 21.2249C320.409 26.4682 321.496 31.264 325.332 35.2284C328.657 38.6814 332.814 39.8963 337.545 39.2568C342.661 38.5535 346.114 35.6121 347.968 30.7524C348.16 30.1769 347.968 30.113 347.457 30.113C346.242 30.113 345.027 30.113 343.812 30.113C343.3 30.113 343.044 30.2409 342.853 30.6885C342.149 32.1592 341.062 33.2462 339.592 34.0135C334.029 37.0188 327.123 33.3741 326.227 27.0437C326.036 26.5322 326.291 26.5322 326.739 26.5322ZM326.547 21.6725C327.762 17.8999 331.471 15.2143 335.243 15.3421C338.824 15.47 342.405 18.4754 343.3 22.3119C340.359 22.3119 337.545 22.3119 334.668 22.3119C332.11 22.3119 329.552 22.3119 326.995 22.3119C326.547 22.248 326.355 22.248 326.547 21.6725Z" fill="#0077C4"/>
<path d="M27.5495 12.5926C27.5495 11.9532 27.4216 11.6974 26.7182 11.7613C26.1427 11.8253 25.5033 11.8253 24.9278 11.7613C24.4163 11.6974 24.2884 11.9532 24.3523 12.4008C24.3523 13.6157 24.3523 14.8306 24.3523 16.2374C24.0966 15.9816 23.9687 15.8537 23.8408 15.7258C20.26 11.5695 14.5051 10.0349 9.32572 11.8892C1.7165 14.6388 -2.05615 23.5908 1.14101 31.3279C4.4021 39.1929 13.546 42.3901 20.6436 38.1059C22.0504 37.2746 23.2014 36.1876 24.2884 34.8448C24.2884 35.9958 24.3523 37.0188 24.2884 38.0419C23.9687 43.605 20.8994 47.5694 15.2085 48.1449C11.4358 48.5286 8.04686 47.6334 5.55308 44.5002C5.36125 44.3084 5.23336 44.1165 4.97759 44.1165C3.89056 44.1165 2.86747 44.1165 1.65255 44.1165C2.41987 45.843 3.44296 47.2497 4.78576 48.4007C7.79109 50.8945 11.244 51.6618 15.0806 51.3421C21.9225 50.8305 26.8461 45.843 27.3577 39.0011C27.5495 36.3155 27.4216 33.5659 27.4855 30.8803C27.5495 24.8057 27.4855 18.7311 27.5495 12.5926ZM21.7307 33.2462C17.0628 38.8092 8.04686 37.7222 4.59393 31.1361C3.63479 29.4096 3.18719 27.5553 3.18719 25.637C3.18719 20.4576 6.64011 15.7898 11.308 14.6388C17.5104 13.1041 23.3932 17.2604 24.2245 23.6547C24.6081 27.1716 24.0326 30.4327 21.7307 33.2462Z" fill="#717171"/>
<path d="M255.634 19.4348C255.634 16.0459 254.1 13.5521 250.967 12.2093C246.554 10.4189 242.078 10.4189 237.794 12.465C234.981 13.8078 233.382 16.1098 232.935 19.243C232.871 19.8824 232.871 20.2661 233.702 20.2022C234.789 20.1382 235.876 20.1382 237.027 20.2022C237.538 20.2022 237.794 20.1382 237.922 19.4988C238.242 17.8363 239.265 16.7492 240.736 16.0459C241.951 15.5343 243.165 15.3425 244.444 15.3425C245.787 15.3425 247.13 15.4064 248.409 15.918C248.856 16.0459 249.24 16.2377 249.624 16.4935C250.583 17.1329 251.094 18.0281 251.03 19.1791C250.967 20.33 250.135 20.9055 249.24 21.2892C247.13 22.1204 244.892 22.2483 242.718 22.3762C240.608 22.5041 238.498 22.7599 236.515 23.5272C233.51 24.7421 231.72 26.8522 231.464 30.1773C231.208 33.6941 232.551 36.3797 235.748 38.0423C238.562 39.449 241.567 39.6408 244.636 39.1932C247.066 38.8735 249.24 37.9144 251.094 35.9961C251.094 36.8913 251.094 37.5307 251.094 38.1701C251.094 38.6817 251.222 38.8096 251.734 38.8096C252.821 38.8096 253.908 38.7456 254.931 38.8096C255.506 38.8096 255.698 38.6817 255.698 38.1062C255.634 31.8398 255.698 25.6373 255.634 19.4348ZM250.967 28.9624C250.775 31.2004 249.56 32.8629 247.578 33.822C244.892 35.1648 242.015 35.3567 239.073 34.5254C236.963 33.9499 236.004 32.5432 236.068 30.6249C236.132 29.0902 237.027 28.0671 238.37 27.4917C240.032 26.7243 241.759 26.5965 243.549 26.4686C244.956 26.4046 246.363 26.2128 247.705 25.957C248.792 25.7013 249.88 25.3176 250.903 24.6142C250.967 26.1489 251.094 27.5556 250.967 28.9624Z" fill="#0077C4"/>
<path d="M50.7608 26.1488C54.5335 26.1488 58.3061 26.1488 62.0788 26.1488C65.8514 26.1488 69.624 26.1488 73.3967 26.1488C74.1001 26.1488 74.2919 25.957 74.2919 25.2536C74.2919 22.6319 73.5246 20.2021 72.2457 17.9641C67.9615 10.5467 58.434 8.7563 51.9758 14.3193C47.3719 18.2838 45.9012 23.3993 47.244 29.282C48.6507 35.4205 54.0859 39.7687 60.3523 40.0244C66.9384 40.2802 71.7342 36.9552 73.7803 30.7527C74.0361 29.9854 73.8443 29.8575 73.1409 29.9214C72.6294 29.9854 72.0539 29.9854 71.5423 29.9214C70.9029 29.8575 70.6471 30.1133 70.4553 30.6888C69.4322 33.2465 67.8336 35.1648 65.148 36.1879C58.1143 38.7456 51.0806 34.4614 50.0575 27.044C49.8656 26.2127 50.1214 26.1488 50.7608 26.1488ZM50.3772 22.3122C51.5921 17.6444 55.8763 14.2554 60.672 14.3193C65.3399 14.3833 69.4322 17.8362 70.7111 22.4401C70.839 22.9517 70.6471 23.0156 70.1995 23.0156C67.0024 23.0156 63.8052 23.0156 60.5441 23.0156C57.347 23.0156 54.1498 23.0156 51.0166 23.0156C50.5051 23.0156 50.1854 23.0156 50.3772 22.3122Z" fill="#717171"/>
<path d="M136.061 17.9003C132.48 11.9536 125.574 9.52374 119.372 12.0815C114.128 14.1916 110.612 19.6267 110.612 25.7653C110.548 26.7244 110.739 27.8754 110.995 29.0264C113.169 38.6178 123.912 43.0299 131.905 37.6587C138.171 33.4384 140.025 24.5503 136.061 17.9003ZM132.096 33.2466C126.725 39.3212 117.326 37.4668 114.448 29.7297C113.937 28.3869 113.681 26.9802 113.681 25.7013C113.745 21.8647 115.151 18.7955 117.965 16.4296C121.738 13.2964 127.109 13.4243 130.945 16.6854C135.741 20.7777 136.253 28.5788 132.096 33.2466Z" fill="#717171"/>
</svg>
